<?xml version="1.0" encoding="UTF-8"?>
<svg id="Layer_2" data-name="Layer 2" xmlns="http://www.w3.org/2000/svg" viewBox="0 0 233.49 233.49">
  <defs>
    <style>
      .cls-1 {
        fill: #2e3192;
      }

      .cls-2 {
        fill: #fff;
        stroke: #e75333;
        stroke-miterlimit: 10;
        stroke-width: 6px;
      }

      .cls-3 {
        fill: #e75333;
      }
    </style>
  </defs>
  <g id="Favicon">
    <rect class="cls-2" x="3" y="3" width="227.49" height="227.49" rx="113.74" ry="113.74"/>
    <path class="cls-3" d="M202.9,100.87l-3.2,5.54c-.23.39-.73.53-1.12.3l-85.15-49.16c-.25-.15-.57-.15-.82,0l-51.99,30.01-33.16,19.15c-.39.23-.89.09-1.12-.3l-3.21-5.54c-.23-.39-.09-.9.3-1.12l21.64-12.5c.25-.15.41-.42.41-.71v-21.55c0-.45.37-.82.82-.82h13.5c.45,0,.82.37.82.82v11.86c0,.63.68,1.03,1.23.71,16.98-9.8,33.95-19.6,50.93-29.41.04-.02.11-.05.21-.05.1,0,.18.03.22.05,29.79,17.2,59.59,34.4,89.38,51.6.39.23.53.73.3,1.12Z"/>
    <g>
      <path class="cls-1" d="M51.31,130.23c-1.26,0-4.12.08-5.38.08h-8.65c-.42-2.02-.5-4.03-.5-5.54s.08-3.61.5-5.63h41.58c.42,1.34.67,3.44.67,5.12,0,4.45-2.18,6.05-7.06,6.05h-2.44c-1.26,0-4.03-.08-5.29-.08h-.08c0,2.35.08,3.95.08,6.22v40.07c-2.35.42-4.87.5-6.72.5s-4.45-.08-6.72-.5v-46.28Z"/>
      <path class="cls-1" d="M131.45,119.15v57.12c-2.18.5-6.47.76-8.15.76s-4.87-.08-7.81-.5l-13.19-30.07c-1.93-4.28-3.61-8.65-4.79-11.84l-.25.08c.59,7.14,1.01,18.14,1.01,25.12v16.72c-2.18.42-4.45.5-6.13.5s-4.28-.08-6.38-.5v-57.12c2.1-.5,6.3-.76,7.98-.76s4.79.08,7.73.5l13.02,29.99c2.1,4.96,4.03,9.66,5.21,12.77l.34-.17c-.67-7.81-1.01-18.98-1.01-24.78v-10.25c0-5.96,2.35-8.15,7.48-8.15h4.37l.59.59Z"/>
      <path class="cls-1" d="M164.21,118.64c11.68,0,19.66,4.7,19.66,15.29,0,5.04-3.19,9.66-7.48,11.51,5.63,1.85,10.16,7.9,10.16,14.62,0,11.76-8.23,16.97-21.08,16.97-6.47,0-13.44-.17-20.66-.34l-.59-.59v-56.53l.59-.59c6.72-.17,13.36-.34,19.4-.34ZM157.49,141.66h5.96c5.71,0,7.31-3.53,7.31-6.8s-1.6-6.64-7.22-6.64c-1.51,0-3.95,0-6.05-.08v13.52ZM157.49,151.23v16.38c2.69-.08,5.29-.08,7.06-.08,6.89,0,8.48-4.54,8.48-8.06s-1.85-8.23-8.57-8.23h-6.97Z"/>
    </g>
  </g>
</svg>