<?xml version="1.0" encoding="UTF-8"?>
<svg id="Layer_2" data-name="Layer 2" xmlns="http://www.w3.org/2000/svg" viewBox="0 0 222 74.96">
  <defs>
    <style>
      .cls-1 {
        fill: #fff;
      }

      .cls-2 {
        fill: #e75333;
      }
    </style>
  </defs>
  <g id="Layer_1-2" data-name="Layer 1">
    <g>
      <path class="cls-1" d="M5.19,41.99c-.45,0-1.47.03-1.92.03H.18c-.15-.72-.18-1.44-.18-1.98s.03-1.29.18-2.01h14.85c.15.48.24,1.23.24,1.83,0,1.59-.78,2.16-2.52,2.16h-.87c-.45,0-1.44-.03-1.89-.03h-.03c0,.84.03,1.41.03,2.22v14.31c-.84.15-1.74.18-2.4.18s-1.59-.03-2.4-.18v-16.53Z"/>
      <path class="cls-1" d="M29.79,54.77c0,1.17.18,2.22.75,2.97-.69.6-1.77,1.02-2.94,1.02-1.89,0-2.52-1.02-2.52-2.91v-6.39c0-1.35-.27-1.98-1.26-1.98-.63,0-1.47.3-2.25,1.02v10.02c-.66.12-1.47.18-2.31.18-.75,0-1.56-.06-2.25-.18v-21.87l.21-.21h1.8c1.86,0,2.55.72,2.55,2.82v5.67c1.14-.93,2.43-1.65,4.02-1.65,2.73,0,4.2,2.22,4.2,5.34v6.15Z"/>
      <path class="cls-1" d="M37.14,52.55c.15,1.62.72,2.85,2.7,2.85,1.35,0,2.67-.42,3.9-.9.69.69,1.11,1.83,1.23,2.76-1.5,1.08-3.78,1.71-5.88,1.71-5.28,0-6.69-3.87-6.69-7.83,0-4.53,1.95-8.04,6.72-8.04,3.96,0,6.24,2.73,6.24,6.36,0,1.32-.09,2.1-.39,3.09h-7.83ZM37.11,49.31h3.96v-.33c0-1.38-.57-2.55-1.98-2.55-1.32,0-1.86.93-1.98,2.88Z"/>
      <path class="cls-1" d="M71.61,38.03v20.4c-.78.18-2.31.27-2.91.27s-1.74-.03-2.79-.18l-4.71-10.74c-.69-1.53-1.29-3.09-1.71-4.23l-.09.03c.21,2.55.36,6.48.36,8.97v5.97c-.78.15-1.59.18-2.19.18s-1.53-.03-2.28-.18v-20.4c.75-.18,2.25-.27,2.85-.27s1.71.03,2.76.18l4.65,10.71c.75,1.77,1.44,3.45,1.86,4.56l.12-.06c-.24-2.79-.36-6.78-.36-8.85v-3.66c0-2.13.84-2.91,2.67-2.91h1.56l.21.21Z"/>
      <path class="cls-1" d="M86.49,57.2c-1.26,1.23-2.91,1.77-4.77,1.77s-3.54-.54-4.77-1.77c-1.59-1.59-2.16-3.54-2.16-6.18s.57-4.56,2.16-6.15c1.23-1.23,2.88-1.77,4.77-1.77s3.51.54,4.77,1.77c1.59,1.59,2.16,3.54,2.16,6.15s-.57,4.59-2.16,6.18ZM81.72,55.46c1.83,0,2.1-1.95,2.1-4.44s-.27-4.41-2.1-4.41-2.13,1.95-2.13,4.41.27,4.44,2.13,4.44Z"/>
      <path class="cls-1" d="M100.26,45.14c0,.6-.06,1.17-.18,1.71l-3.57-.06v6.9c0,.9.39,1.41,1.32,1.41h1.68c.24.66.39,1.5.39,2.22,0,.36-.03.75-.12,1.05-1.11.15-2.7.3-3.87.3-2.73,0-3.99-1.32-3.99-4.17v-7.68l-2.34.03c-.15-.54-.21-1.11-.21-1.71,0-.51.06-1.05.21-1.62l2.34.06v-1.74c0-2.07.72-2.82,2.55-2.82h1.83l.21.21v4.35l3.57-.06c.12.57.18,1.11.18,1.62Z"/>
      <path class="cls-1" d="M108.54,58.52c-.66.12-1.56.18-2.37.18s-1.65-.06-2.34-.18v-9.93c0-.99-.36-1.74-1.41-1.74h-.45c-.15-.51-.18-1.02-.18-1.59,0-.51.03-1.14.18-1.68.93-.09,1.98-.15,2.64-.15h.66c1.98,0,3.27,1.38,3.27,3.57v11.52ZM103.29,37.52c.51-.27,1.41-.48,2.22-.48s1.77.21,2.22.48c.24.54.36,1.2.36,1.74s-.12,1.2-.36,1.74c-.45.24-1.41.45-2.22.45s-1.77-.18-2.22-.45c-.24-.54-.36-1.2-.36-1.74,0-.57.12-1.2.36-1.74Z"/>
      <path class="cls-1" d="M117.81,46.58c-1.38,0-1.86,1.35-1.86,4.5s.9,4.23,2.61,4.23c1.17,0,2.34-.6,3.3-1.26.75.42,1.56,1.68,1.77,2.61-1.32,1.41-3.63,2.31-5.82,2.31-4.32,0-6.63-3.09-6.63-7.89,0-5.82,3.42-7.98,6.72-7.98s5.85,2.01,5.85,4.98c0,1.56-.99,2.28-2.31,2.28-.78,0-1.29-.06-1.89-.18.03-2.31-.18-3.6-1.74-3.6Z"/>
      <path class="cls-1" d="M129.93,52.55c.15,1.62.72,2.85,2.7,2.85,1.35,0,2.67-.42,3.9-.9.69.69,1.11,1.83,1.23,2.76-1.5,1.08-3.78,1.71-5.88,1.71-5.28,0-6.69-3.87-6.69-7.83,0-4.53,1.95-8.04,6.72-8.04,3.96,0,6.24,2.73,6.24,6.36,0,1.32-.09,2.1-.39,3.09h-7.83ZM129.9,49.31h3.96v-.33c0-1.38-.57-2.55-1.98-2.55-1.32,0-1.86.93-1.98,2.88Z"/>
      <path class="cls-1" d="M155.22,37.85c4.17,0,7.02,1.68,7.02,5.46,0,1.8-1.14,3.45-2.67,4.11,2.01.66,3.63,2.82,3.63,5.22,0,4.2-2.94,6.06-7.53,6.06-2.31,0-4.8-.06-7.38-.12l-.21-.21v-20.19l.21-.21c2.4-.06,4.77-.12,6.93-.12ZM152.82,46.07h2.13c2.04,0,2.61-1.26,2.61-2.43s-.57-2.37-2.58-2.37c-.54,0-1.41,0-2.16-.03v4.83ZM152.82,49.49v5.85c.96-.03,1.89-.03,2.52-.03,2.46,0,3.03-1.62,3.03-2.88s-.66-2.94-3.06-2.94h-2.49Z"/>
      <path class="cls-1" d="M176.85,57.2c-1.26,1.23-2.91,1.77-4.77,1.77s-3.54-.54-4.77-1.77c-1.59-1.59-2.16-3.54-2.16-6.18s.57-4.56,2.16-6.15c1.23-1.23,2.88-1.77,4.77-1.77s3.51.54,4.77,1.77c1.59,1.59,2.16,3.54,2.16,6.15s-.57,4.59-2.16,6.18ZM172.08,55.46c1.83,0,2.1-1.95,2.1-4.44s-.27-4.41-2.1-4.41-2.13,1.95-2.13,4.41.27,4.44,2.13,4.44Z"/>
      <path class="cls-1" d="M192.99,58.76c-1.53-.03-2.58-.72-3.24-1.59-1.05.99-2.43,1.8-4.38,1.8-3.09,0-4.56-2.4-4.56-4.56,0-3.6,2.85-5.19,5.94-5.19.54,0,1.35,0,2.13.06v-.57c0-1.26-.6-1.89-1.95-1.89s-2.85.48-4.41.96c-.66-.78-1.02-2.1-1.14-3.27,2.01-.81,4.92-1.32,6.87-1.32,2.61,0,5.34,1.32,5.34,5.13v6.09c0,.87.24,1.53.84,1.95-.18.81-.84,1.95-1.44,2.4ZM188.88,54.65v-2.4c-.6-.03-1.2-.06-1.62-.06-1.35,0-1.89.78-1.89,1.92,0,.81.54,1.41,1.38,1.41.69,0,1.44-.3,2.13-.87Z"/>
      <path class="cls-1" d="M197.61,43.31c1.92.15,3.15,1.14,3.84,2.73.66-1.56,1.8-2.7,3.75-2.7.9,0,1.38.12,1.98.24,0,1.11-.39,3.09-1.17,4.38-.51-.18-1.02-.24-1.53-.3-1.08,0-1.83.54-2.46,1.53v9.33c-.66.12-1.53.18-2.34.18s-1.65-.06-2.34-.18v-9.69c0-1.77-.66-2.76-1.14-3.12.18-.81.84-1.95,1.41-2.4Z"/>
      <path class="cls-1" d="M213.81,43.25c1.05,0,1.95.27,2.79.66v-7.26l.18-.21h1.83c1.86,0,2.55.72,2.55,2.82v14.94c0,.96.33,1.8.84,2.16-.18.81-.84,1.95-1.44,2.4-1.5-.03-2.55-.66-3.21-1.68-1.05,1.11-2.49,1.89-4.14,1.89-3.66,0-5.4-3.21-5.4-7.77,0-5.16,2.73-7.95,6-7.95ZM216.6,54.02v-6.57c-.72-.42-1.38-.72-1.95-.72-1.44,0-2.04,1.74-2.04,4.5s.75,3.96,1.8,3.96c.6,0,1.44-.24,2.19-1.17Z"/>
    </g>
    <path class="cls-2" d="M144.44,21.39l-1.3,2.25c-.09.16-.3.21-.45.12L108.18,3.83c-.1-.06-.23-.06-.33,0l-21.07,12.17-13.44,7.76c-.16.09-.36.04-.45-.12l-1.3-2.25c-.09-.16-.04-.36.12-.46l8.77-5.07c.1-.06.17-.17.17-.29V6.84c0-.18.15-.33.33-.33h5.47c.18,0,.33.15.33.33v4.81c0,.26.28.42.5.29,6.88-3.97,13.76-7.95,20.65-11.92.02,0,.05-.02.09-.02.04,0,.07.01.09.02,12.08,6.97,24.16,13.94,36.23,20.92.16.09.21.3.12.45Z"/>
  </g>
  <g id="Favicon">
    <g>
      <path class="cls-2" d="M10.96,68.96h-1.8c-.08-.57-.38-.95-.97-.95-.41,0-.69.2-.69.62,0,.44.32.71,1.46.98,1.52.36,2.14,1.12,2.14,2.18,0,1.38-1.32,2.08-2.71,2.08-1.75,0-2.93-.7-3.04-2.25h1.8c.12.65.65.93,1.19.93.5,0,.88-.26.88-.64,0-.36-.26-.67-1.11-.88-1.57-.39-2.49-.88-2.49-2.26s1.24-2.08,2.61-2.08c1.82,0,2.58.99,2.73,2.27Z"/>
      <path class="cls-2" d="M14.73,71.93l-.58,1.79h-1.91l2.49-6.9h2.2l2.49,6.9h-1.96l-.58-1.79h-2.15ZM15.17,70.53h1.28l-.64-2.12-.64,2.12Z"/>
      <path class="cls-2" d="M22.92,69.56h3.09v1.4h-3.09v2.76h-1.8v-6.9h5.19v1.4h-3.39v1.34Z"/>
      <path class="cls-2" d="M33.61,73.72h-5.29v-6.9h5.19v1.4h-3.39v1.34h3.19v1.4h-3.19v1.36h3.49v1.4Z"/>
      <path class="cls-2" d="M44.16,69.07c0,1.36-.91,2.07-1.91,2.19-.37.04-.65.05-1.08.05h-.8v2.42h-1.8v-6.9h2.6c.43,0,.71.01,1.08.05,1,.12,1.91.83,1.91,2.19ZM42.28,69.07c0-.52-.27-.79-.73-.83-.13,0-.29,0-.48,0h-.7v1.68h.7c.19,0,.35,0,.48,0,.46-.04.73-.31.73-.83Z"/>
      <path class="cls-2" d="M51.96,73.72h-1.96c-.16-.49-.26-.89-.32-1.38-.09-.76-.39-1.2-.85-1.23-.2,0-.37,0-.57,0h-.4v2.62h-1.8v-6.9h2.74c.43,0,.71.01,1.08.05,1,.12,1.87.61,1.87,1.83,0,.87-.47,1.45-1.39,1.72.72.26.98.79,1.08,1.62.09.78.25,1.27.52,1.68ZM48.51,69.81c.19,0,.35,0,.48,0,.46-.04.88-.2.88-.78s-.37-.74-.83-.78c-.13,0-.29,0-.48,0h-.7v1.58h.65Z"/>
      <path class="cls-2" d="M60.73,70.27c0,2.21-1.38,3.59-3.53,3.59s-3.53-1.38-3.53-3.59,1.38-3.59,3.53-3.59,3.53,1.37,3.53,3.59ZM58.89,70.27c0-1.47-.65-2.27-1.69-2.27s-1.69.8-1.69,2.27.65,2.27,1.69,2.27,1.69-.81,1.69-2.27Z"/>
      <path class="cls-2" d="M68.45,69.07c0,1.36-.91,2.07-1.91,2.19-.37.04-.65.05-1.08.05h-.8v2.42h-1.8v-6.9h2.6c.43,0,.71.01,1.08.05,1,.12,1.91.83,1.91,2.19ZM66.57,69.07c0-.52-.27-.79-.73-.83-.13,0-.29,0-.48,0h-.7v1.68h.7c.19,0,.35,0,.48,0,.46-.04.73-.31.73-.83Z"/>
      <path class="cls-2" d="M75.64,73.72h-5.29v-6.9h5.19v1.4h-3.39v1.34h3.19v1.4h-3.19v1.36h3.49v1.4Z"/>
      <path class="cls-2" d="M83.69,73.72h-1.96c-.16-.49-.26-.89-.32-1.38-.09-.76-.39-1.2-.85-1.23-.2,0-.37,0-.57,0h-.4v2.62h-1.8v-6.9h2.74c.43,0,.71.01,1.08.05,1,.12,1.87.61,1.87,1.83,0,.87-.47,1.45-1.39,1.72.72.26.98.79,1.08,1.62.09.78.25,1.27.52,1.68ZM80.24,69.81c.19,0,.35,0,.48,0,.46-.04.88-.2.88-.78s-.37-.74-.83-.78c-.13,0-.29,0-.48,0h-.7v1.58h.65Z"/>
      <path class="cls-2" d="M89.04,68.23v5.5h-1.8v-5.5h-2.24v-1.4h6.28v1.4h-2.24Z"/>
      <path class="cls-2" d="M96.6,73.72h-1.8v-2.64l-2.43-4.26h2.02l1.36,2.73,1.31-2.73h1.97l-2.43,4.26v2.64Z"/>
      <path class="cls-2" d="M109.92,70.19c0,2.16-1.32,3.32-2.92,3.5-.35.04-.51.04-.88.04h-2.61v-6.9h2.61c.37,0,.53,0,.88.04,1.6.18,2.92,1.16,2.92,3.32ZM108.05,70.22c0-1.23-.62-1.89-1.52-1.97-.23-.02-.39-.02-.65-.02h-.56v4.1h.56c.26,0,.42,0,.65-.02.9-.08,1.52-.86,1.52-2.09Z"/>
      <path class="cls-2" d="M117.35,73.72h-5.29v-6.9h5.19v1.4h-3.39v1.34h3.19v1.4h-3.19v1.36h3.49v1.4Z"/>
      <path class="cls-2" d="M121.23,71.93l-.58,1.79h-1.91l2.49-6.9h2.2l2.49,6.9h-1.96l-.58-1.79h-2.15ZM121.67,70.53h1.28l-.64-2.12-.64,2.12Z"/>
      <path class="cls-2" d="M132.91,73.72h-5.29v-6.9h1.8v5.38h3.49v1.52Z"/>
      <path class="cls-2" d="M140.1,68.96h-1.8c-.08-.57-.38-.95-.97-.95-.41,0-.69.2-.69.62,0,.44.32.71,1.46.98,1.52.36,2.14,1.12,2.14,2.18,0,1.38-1.32,2.08-2.71,2.08-1.75,0-2.93-.7-3.04-2.25h1.8c.12.65.65.93,1.19.93.5,0,.88-.26.88-.64,0-.36-.26-.67-1.11-.88-1.57-.39-2.49-.88-2.49-2.26s1.24-2.08,2.61-2.08c1.82,0,2.58.99,2.73,2.27Z"/>
      <path class="cls-2" d="M142.58,74.96h-1.38l.8-2.96h1.67v.1l-1.09,2.86Z"/>
      <path class="cls-2" d="M154.06,73.72h-5.29v-6.9h5.19v1.4h-3.39v1.34h3.19v1.4h-3.19v1.36h3.49v1.4Z"/>
      <path class="cls-2" d="M158.23,73.72l-2.49-6.9h1.96l1.65,5.51,1.66-5.51h1.91l-2.49,6.9h-2.2Z"/>
      <path class="cls-2" d="M169.97,73.72h-5.29v-6.9h5.19v1.4h-3.39v1.34h3.19v1.4h-3.19v1.36h3.49v1.4Z"/>
      <path class="cls-2" d="M178.02,73.72h-1.96c-.16-.49-.26-.89-.32-1.38-.09-.76-.39-1.2-.85-1.23-.2,0-.37,0-.57,0h-.4v2.62h-1.8v-6.9h2.74c.43,0,.71.01,1.08.05,1,.12,1.87.61,1.87,1.83,0,.87-.47,1.45-1.39,1.72.72.26.98.79,1.08,1.62.09.78.25,1.27.52,1.68ZM174.58,69.81c.19,0,.35,0,.48,0,.46-.04.88-.2.88-.78s-.37-.74-.83-.78c-.13,0-.29,0-.48,0h-.7v1.58h.65Z"/>
      <path class="cls-2" d="M183.57,73.72h-1.8v-2.64l-2.43-4.26h2.02l1.36,2.73,1.31-2.73h1.97l-2.43,4.26v2.64Z"/>
      <path class="cls-2" d="M193.87,68.23v5.5h-1.8v-5.5h-2.24v-1.4h6.28v1.4h-2.24Z"/>
      <path class="cls-2" d="M197.86,73.72v-6.9h1.8v6.9h-1.8Z"/>
      <path class="cls-2" d="M209.93,73.72h-1.8v-2.9c0-.6,0-1.49.02-2.19-.12.7-.32,1.58-.48,2.19l-.76,2.9h-1.85l-.77-2.9c-.16-.6-.36-1.49-.47-2.19.02.7.02,1.59.02,2.19v2.9h-1.8v-6.9h2.81l1.17,5.15,1.17-5.15h2.74v6.9Z"/>
      <path class="cls-2" d="M217.61,73.72h-5.29v-6.9h5.19v1.4h-3.39v1.34h3.19v1.4h-3.19v1.36h3.49v1.4Z"/>
    </g>
  </g>
</svg>